<svg xmlns="http://www.w3.org/2000/svg" xmlns:xlink="http://www.w3.org/1999/xlink" width="1080" zoomAndPan="magnify" viewBox="0 0 810 809.999993" height="1080" preserveAspectRatio="xMidYMid meet" version="1.0"><defs><clipPath id="c7697a1303"><path d="M 221 289 L 325 289 L 325 521 L 221 521 Z M 221 289 " clip-rule="nonzero"/></clipPath><clipPath id="ebdb2fd7ce"><path d="M 299.171875 285.398438 L 331.316406 296.988281 L 248.875 525.578125 L 216.726562 513.984375 Z M 299.171875 285.398438 " clip-rule="nonzero"/></clipPath><clipPath id="693a18c312"><path d="M 313.898438 290.707031 C 317.800781 292.117188 320.988281 295.019531 322.753906 298.777344 C 324.519531 302.535156 324.71875 306.839844 323.3125 310.746094 L 251.492188 509.878906 C 250.082031 513.785156 247.179688 516.972656 243.421875 518.738281 C 239.664062 520.503906 235.359375 520.703125 231.453125 519.296875 C 227.546875 517.886719 224.363281 514.984375 222.597656 511.226562 C 220.832031 507.46875 220.628906 503.164062 222.039062 499.257812 L 293.859375 300.121094 C 295.269531 296.21875 298.171875 293.03125 301.929688 291.265625 C 305.6875 289.5 309.992188 289.300781 313.898438 290.707031 " clip-rule="nonzero"/></clipPath><clipPath id="893e9ab0a1"><path d="M 296 290 L 401 290 L 401 521 L 296 521 Z M 296 290 " clip-rule="nonzero"/></clipPath><clipPath id="a5043146ff"><path d="M 292.066406 296.414062 L 324.15625 284.664062 L 407.6875 512.855469 L 375.597656 524.601562 Z M 292.066406 296.414062 " clip-rule="nonzero"/></clipPath><clipPath id="48d27a49ac"><path d="M 306.765625 291.03125 C 310.664062 289.605469 314.96875 289.785156 318.734375 291.53125 C 322.5 293.28125 325.417969 296.453125 326.847656 300.351562 L 399.617188 499.140625 C 401.046875 503.039062 400.867188 507.34375 399.117188 511.109375 C 397.371094 514.878906 394.199219 517.792969 390.300781 519.222656 C 386.402344 520.648438 382.09375 520.46875 378.328125 518.722656 C 374.5625 516.972656 371.644531 513.800781 370.21875 509.902344 L 297.445312 311.113281 C 296.019531 307.214844 296.199219 302.90625 297.945312 299.140625 C 299.695312 295.375 302.867188 292.457031 306.765625 291.03125 " clip-rule="nonzero"/></clipPath><clipPath id="cfbb7ae793"><path d="M 368 425 L 423 425 L 423 521 L 368 521 Z M 368 425 " clip-rule="nonzero"/></clipPath><clipPath id="5cecd2076f"><path d="M 397.851562 420.917969 L 430 432.511719 L 395.21875 528.949219 L 363.074219 517.355469 Z M 397.851562 420.917969 " clip-rule="nonzero"/></clipPath><clipPath id="a6545d7d68"><path d="M 412.578125 426.230469 C 416.484375 427.640625 419.671875 430.542969 421.4375 434.296875 C 423.203125 438.054688 423.402344 442.363281 421.992188 446.265625 L 399.050781 509.878906 C 397.640625 513.785156 394.738281 516.972656 390.980469 518.738281 C 387.222656 520.503906 382.917969 520.703125 379.015625 519.292969 C 375.109375 517.886719 371.921875 514.984375 370.15625 511.226562 C 368.390625 507.46875 368.191406 503.164062 369.597656 499.257812 L 392.542969 435.644531 C 393.949219 431.738281 396.851562 428.554688 400.609375 426.789062 C 404.367188 425.023438 408.671875 424.820312 412.578125 426.230469 " clip-rule="nonzero"/></clipPath><clipPath id="8a9df52505"><path d="M 451 290 L 557 290 L 557 521 L 451 521 Z M 451 290 " clip-rule="nonzero"/></clipPath><clipPath id="9743120fcb"><path d="M 446.867188 296.828125 L 478.898438 284.921875 L 563.5625 512.699219 L 531.53125 524.601562 Z M 446.867188 296.828125 " clip-rule="nonzero"/></clipPath><clipPath id="5d461eb0c0"><path d="M 461.539062 291.375 C 465.429688 289.929688 469.738281 290.085938 473.511719 291.816406 C 477.289062 293.546875 480.21875 296.703125 481.667969 300.59375 L 555.425781 499.023438 C 556.871094 502.914062 556.710938 507.21875 554.984375 510.996094 C 553.253906 514.769531 550.097656 517.703125 546.203125 519.148438 C 542.3125 520.597656 538.007812 520.4375 534.230469 518.707031 C 530.457031 516.980469 527.523438 513.820312 526.078125 509.929688 L 452.320312 311.503906 C 450.875 307.613281 451.03125 303.304688 452.761719 299.53125 C 454.492188 295.753906 457.648438 292.820312 461.539062 291.375 " clip-rule="nonzero"/></clipPath><clipPath id="714ebf0bf1"><path d="M 432 405.261719 L 549.039062 405.261719 L 549.039062 436 L 432 436 Z M 432 405.261719 " clip-rule="nonzero"/></clipPath><clipPath id="b6d64f95cd"><path d="M 549.039062 420.917969 C 549.039062 425.070312 547.386719 429.050781 544.453125 431.988281 C 541.515625 434.921875 537.535156 436.570312 533.382812 436.570312 L 448.597656 436.570312 C 444.445312 436.570312 440.464844 434.921875 437.527344 431.988281 C 434.59375 429.050781 432.941406 425.070312 432.941406 420.917969 C 432.941406 416.765625 434.59375 412.785156 437.527344 409.847656 C 440.464844 406.914062 444.445312 405.261719 448.597656 405.261719 L 533.382812 405.261719 C 537.535156 405.261719 541.515625 406.914062 544.453125 409.847656 C 547.386719 412.785156 549.039062 416.765625 549.039062 420.917969 " clip-rule="nonzero"/></clipPath><clipPath id="f920453be0"><path d="M 372 420 L 427 420 L 427 503 L 372 503 Z M 372 420 " clip-rule="nonzero"/></clipPath><clipPath id="f2782a7f4f"><path d="M 397.71875 420.917969 L 429.863281 432.511719 L 404.097656 503.945312 L 371.953125 492.351562 Z M 397.71875 420.917969 " clip-rule="nonzero"/></clipPath><clipPath id="73b0916644"><path d="M 397.71875 420.917969 L 428.054688 431.859375 L 402.359375 503.105469 L 372.023438 492.164062 Z M 397.71875 420.917969 " clip-rule="nonzero"/></clipPath><clipPath id="ed8d544139"><path d="M 414 290 L 480 290 L 480 400 L 414 400 Z M 414 290 " clip-rule="nonzero"/></clipPath><clipPath id="81b4f24bf3"><path d="M 438.4375 404.195312 L 407.039062 390.710938 L 453.488281 282.558594 L 484.886719 296.046875 Z M 438.4375 404.195312 " clip-rule="nonzero"/></clipPath><clipPath id="fb2f24a7f5"><path d="M 424.054688 398.019531 C 420.238281 396.378906 417.230469 393.292969 415.695312 389.4375 C 414.15625 385.582031 414.210938 381.269531 415.847656 377.457031 L 449.101562 300.03125 C 450.742188 296.214844 453.828125 293.207031 457.683594 291.667969 C 461.539062 290.128906 465.851562 290.1875 469.664062 291.824219 C 473.480469 293.460938 476.488281 296.550781 478.027344 300.40625 C 479.566406 304.261719 479.507812 308.570312 477.871094 312.386719 L 444.617188 389.8125 C 442.976562 393.625 439.890625 396.632812 436.035156 398.171875 C 432.179688 399.710938 427.871094 399.65625 424.054688 398.019531 " clip-rule="nonzero"/></clipPath><clipPath id="4e6f26f234"><path d="M 407 316 L 470 316 L 470 413 L 407 413 Z M 407 316 " clip-rule="nonzero"/></clipPath><clipPath id="955f941bc7"><path d="M 441.410156 316.820312 L 473.105469 329.59375 L 439.046875 414.113281 L 407.351562 401.34375 Z M 441.410156 316.820312 " clip-rule="nonzero"/></clipPath><clipPath id="7da9de3019"><path d="M 441.410156 316.820312 L 471.320312 328.875 L 437.488281 412.832031 L 407.578125 400.777344 Z M 441.410156 316.820312 " clip-rule="nonzero"/></clipPath></defs><g clip-path="url(#c7697a1303)"><g clip-path="url(#ebdb2fd7ce)"><g clip-path="url(#693a18c312)"><path fill="#000000" d="M 299.171875 285.398438 L 327.746094 295.703125 L 245.300781 524.289062 L 216.726562 513.984375 Z M 299.171875 285.398438 " fill-opacity="1" fill-rule="nonzero"/></g></g></g><g clip-path="url(#893e9ab0a1)"><g clip-path="url(#a5043146ff)"><g clip-path="url(#48d27a49ac)"><path fill="#000000" d="M 292.066406 296.414062 L 320.589844 285.972656 L 404.125 514.160156 L 375.597656 524.601562 Z M 292.066406 296.414062 " fill-opacity="1" fill-rule="nonzero"/></g></g></g><g clip-path="url(#cfbb7ae793)"><g clip-path="url(#5cecd2076f)"><g clip-path="url(#a6545d7d68)"><path fill="#000000" d="M 397.851562 420.917969 L 426.425781 431.222656 L 392.933594 524.089844 L 364.359375 513.78125 Z M 397.851562 420.917969 " fill-opacity="1" fill-rule="nonzero"/></g></g></g><g clip-path="url(#8a9df52505)"><g clip-path="url(#9743120fcb)"><g clip-path="url(#5d461eb0c0)"><path fill="#000000" d="M 446.867188 296.828125 L 475.335938 286.246094 L 560.003906 514.019531 L 531.53125 524.601562 Z M 446.867188 296.828125 " fill-opacity="1" fill-rule="nonzero"/></g></g></g><g clip-path="url(#714ebf0bf1)"><g clip-path="url(#b6d64f95cd)"><path fill="#000000" d="M 549.039062 405.261719 L 549.039062 435.636719 L 431.335938 435.636719 L 431.335938 405.261719 Z M 549.039062 405.261719 " fill-opacity="1" fill-rule="nonzero"/></g></g><g clip-path="url(#f920453be0)"><g clip-path="url(#f2782a7f4f)"><g clip-path="url(#73b0916644)"><path fill="#000000" d="M 397.71875 420.917969 L 426.292969 431.226562 L 400.527344 502.660156 L 371.953125 492.351562 Z M 397.71875 420.917969 " fill-opacity="1" fill-rule="nonzero"/></g></g></g><g clip-path="url(#ed8d544139)"><g clip-path="url(#81b4f24bf3)"><g clip-path="url(#fb2f24a7f5)"><path fill="#000000" d="M 438.4375 404.195312 L 410.527344 392.207031 L 455.480469 287.546875 L 483.390625 299.535156 Z M 438.4375 404.195312 " fill-opacity="1" fill-rule="nonzero"/></g></g></g><g clip-path="url(#4e6f26f234)"><g clip-path="url(#955f941bc7)"><g clip-path="url(#7da9de3019)"><path fill="#000000" d="M 441.410156 316.820312 L 469.582031 328.175781 L 435.523438 412.695312 L 407.351562 401.34375 Z M 441.410156 316.820312 " fill-opacity="1" fill-rule="nonzero"/></g></g></g></svg>